<svg xmlns="http://www.w3.org/2000/svg" xmlns:xlink="http://www.w3.org/1999/xlink" viewBox="0 0 77.37 77.37"><defs><style>.a{stroke:#232323;stroke-miterlimit:10;stroke-width:0.5px;fill:url(#a);}.b{fill:url(#b);}.c{fill:#fff;}.d{fill:url(#c);}.e{fill:url(#d);}</style><linearGradient id="a" x1="0.25" y1="38.68" x2="77.12" y2="38.68" gradientUnits="userSpaceOnUse"><stop offset="0" stop-color="#6760cf"/><stop offset="1" stop-color="#00caa4"/></linearGradient><linearGradient id="b" x1="22.11" y1="38.68" x2="57.48" y2="38.68" xlink:href="#a"/><linearGradient id="c" x1="22.66" y1="40.08" x2="51.02" y2="40.08" xlink:href="#a"/><linearGradient id="d" x1="29.15" y1="36.85" x2="56.93" y2="36.85" xlink:href="#a"/></defs><circle class="a" cx="38.68" cy="38.68" r="38.43"/><path class="b" d="M55.11,26.08a11.84,11.84,0,0,0-5.17-4.3h0a18.85,18.85,0,0,0-7.78-1.49H33.39a4.23,4.23,0,0,0-4,2.79H26.67a4,4,0,0,0-4,4v30h5.61a4,4,0,0,0,4-3.67h2.65a4.24,4.24,0,0,0,4.24-4.24V48a17.48,17.48,0,0,0,4.78-1.32,12.84,12.84,0,0,0,3.52-2.3,15.88,15.88,0,0,0,2.49-.87,12.16,12.16,0,0,0,5.17-17.41Z"/><path class="c" d="M28.27,58.33H21.41V27.09a5.27,5.27,0,0,1,5.26-5.26h1.94A5.52,5.52,0,0,1,33.39,19h8.77a20,20,0,0,1,8.3,1.6,12.58,12.58,0,0,1,7.72,12,12.54,12.54,0,0,1-7.72,12,15.8,15.8,0,0,1-2.4.86,14.18,14.18,0,0,1-3.62,2.31,18.51,18.51,0,0,1-4,1.25v.12a5.5,5.5,0,0,1-5.49,5.5H33.28A5.31,5.31,0,0,1,28.27,58.33Zm-4.36-2.5h4.36A2.79,2.79,0,0,0,31,53.31l.09-1.15h3.8a3,3,0,0,0,3-3V46.89L39,46.74a16,16,0,0,0,4.43-1.22,11.37,11.37,0,0,0,3.18-2.08l.23-.21.31-.08a14.14,14.14,0,0,0,2.3-.8,10.9,10.9,0,0,0,4.63-15.58h0a10.52,10.52,0,0,0-4.63-3.85,17.59,17.59,0,0,0-7.27-1.38H33.39a3,3,0,0,0-2.8,2l-.31.82H26.67a2.77,2.77,0,0,0-2.76,2.76Z"/><path class="d" d="M43.93,24.61a11.53,11.53,0,0,1,7.09,11,11.48,11.48,0,0,1-7.09,11,19.42,19.42,0,0,1-8,1.53H32.28v4.88a4,4,0,0,1-4,4H22.66v-30a4,4,0,0,1,4-4h9.24A19.42,19.42,0,0,1,43.93,24.61Z"/><path class="c" d="M49.77,22.17a10.94,10.94,0,0,1,6.72,10.49A11.24,11.24,0,0,1,54.74,39a11.37,11.37,0,0,1-5,4.13,18.58,18.58,0,0,1-7.61,1.45H38.71v4.62A3.8,3.8,0,0,1,34.91,53H29.59V24.53a3.81,3.81,0,0,1,3.8-3.81h8.77A18.58,18.58,0,0,1,49.77,22.17Zm-3.92,14a4.35,4.35,0,0,0,1.43-3.48,4.38,4.38,0,0,0-1.43-3.5,6.31,6.31,0,0,0-4.24-1.25h-2.9v9.45h2.9A6.42,6.42,0,0,0,45.85,36.14Z"/><path class="e" d="M34.91,53.41H29.15V24.53a4.25,4.25,0,0,1,4.24-4.24h8.77a18.85,18.85,0,0,1,7.78,1.49h0a11.81,11.81,0,0,1,0,21.71A18.85,18.85,0,0,1,42.16,45h-3v4.19A4.24,4.24,0,0,1,34.91,53.41ZM30,52.55h4.89a3.38,3.38,0,0,0,3.37-3.38V44.11h3.88a18.07,18.07,0,0,0,7.43-1.41,11,11,0,0,0,0-20.13,18.07,18.07,0,0,0-7.43-1.41H33.39A3.38,3.38,0,0,0,30,24.53ZM41.61,37.79H38.28V27.48h3.33a6.7,6.7,0,0,1,4.52,1.35,4.82,4.82,0,0,1,1.58,3.83,4.76,4.76,0,0,1-1.58,3.81A6.81,6.81,0,0,1,41.61,37.79Zm-2.46-.87h2.46a6,6,0,0,0,4-1.11,3.9,3.9,0,0,0,1.28-3.15,4,4,0,0,0-1.28-3.18,5.93,5.93,0,0,0-4-1.13H39.15Z"/></svg>