<svg xmlns="http://www.w3.org/2000/svg" xmlns:xlink="http://www.w3.org/1999/xlink" viewBox="0 0 77.37 77.37"><defs><style>.a{stroke:#232323;stroke-miterlimit:10;stroke-width:0.5px;fill:url(#a);}.b{fill:#fff;}</style><linearGradient id="a" x1="0.25" y1="38.68" x2="77.12" y2="38.68" gradientUnits="userSpaceOnUse"><stop offset="0" stop-color="#6760cf"/><stop offset="1" stop-color="#00caa4"/></linearGradient></defs><circle class="a" cx="38.68" cy="38.68" r="38.43"/><path class="b" d="M61.84,27.81c-.54,4.75-1,10-1.78,15.26A31.84,31.84,0,0,1,58,50.54a22.38,22.38,0,0,1-9.43,10.62c-2.3,1.4-4.62,2.76-6.92,4.14a5.79,5.79,0,0,1-6.28.06C33,64,30.54,62.64,28.2,61.16A23.78,23.78,0,0,1,16.73,42.62c-.5-4.74-1.07-9.48-1.58-14.22A9.08,9.08,0,0,1,21,18.55c3.78-1.61,7.59-3.17,11.39-4.75,1.6-.67,3.17-1.43,4.81-2a3.91,3.91,0,0,1,2.46,0C45.1,14,50.53,16.3,56,18.59A9.34,9.34,0,0,1,61.84,27.81Zm-3.91.37c.14-3.14-1.06-5.13-3.4-6.13q-7.65-3.27-15.34-6.44a2.26,2.26,0,0,0-1.58,0Q29.8,18.78,22,22.1a5.46,5.46,0,0,0-3.35,6c.52,4.48,1.07,8.95,1.5,13.44.71,7.5,4.19,13.18,10.75,17,2,1.14,4,2.33,5.9,3.55a2.49,2.49,0,0,0,2.91,0c2.32-1.44,4.7-2.79,7-4.23A19.1,19.1,0,0,0,56,44.56C56.93,38.93,57.35,33.2,57.93,28.18Z"/><path class="b" d="M37.76,39.81l-5.54-4.39L30,38.25l5,3.93c2.94,2.33,3,2.33,5.79-.17,2.53-2.23,5-4.47,7.63-6.77l-2.44-2.7Z"/><path class="b" d="M37.76,39.81l8.16-7.27,2.44,2.7c-2.59,2.3-5.1,4.54-7.63,6.77-2.84,2.5-2.85,2.5-5.79.17l-5-3.93,2.24-2.83Z"/></svg>