<svg xmlns="http://www.w3.org/2000/svg" xmlns:xlink="http://www.w3.org/1999/xlink" viewBox="0 0 77.37 77.37"><defs><style>.a{stroke:#232323;stroke-miterlimit:10;stroke-width:0.5px;fill:url(#a);}.b{fill:#fff;}</style><linearGradient id="a" x1="0.25" y1="38.68" x2="77.12" y2="38.68" gradientUnits="userSpaceOnUse"><stop offset="0" stop-color="#6760cf"/><stop offset="1" stop-color="#00caa4"/></linearGradient></defs><circle class="a" cx="38.68" cy="38.68" r="38.43"/><path class="b" d="M26.62,26.4c9.44-5.63,24-3.7,30,5.44l1-1.52c-.6-.44-1.16-.78-1.65-1.21a3.5,3.5,0,0,1-1.16-4.24,2.85,2.85,0,0,1,3.34-1.48,2.77,2.77,0,0,1,2.19,2.7c0,.92-.1,1.84-.17,2.87l1.28.2c.6.09.94.49.76,1-.12.34-.65.85-.87.8-1.6-.4-2.19.58-2.93,1.7A2.78,2.78,0,0,0,58,35.21c1.13,4.61-.34,8.53-3.76,11.62a4.51,4.51,0,0,0-1.76,4.23,18.73,18.73,0,0,1,0,2.37,1,1,0,0,1-1.1,1.14,32.1,32.1,0,0,1-3.67,0,1.79,1.79,0,0,1-1.16-.87c-1-1.82-1-1.82-3-1.48a26.93,26.93,0,0,1-10.73-.28c-.67-.16-1,0-1.19.6a2.71,2.71,0,0,1-3.44,2.1,9.71,9.71,0,0,0-1.79,0c-.89,0-1.34-.38-1.33-1.32,0-1.35.05-2.71,0-4.06a1.56,1.56,0,0,0-.6-1.07c-2-1.3-4-2.53-6-3.8a6,6,0,0,1-3.07-5.51,3.68,3.68,0,0,1,3.26-3.73A1.47,1.47,0,0,0,20,34a15.8,15.8,0,0,1,1.77-3.19,1.37,1.37,0,0,0,.17-1.64,9,9,0,0,1-.73-2.45c-.18-1.08.33-1.65,1.39-1.46C23.83,25.49,25.07,26,26.62,26.4Zm-3.1.88-.27.26A8.45,8.45,0,0,0,24,29c.72.83.5,1.43-.1,2.25a20.2,20.2,0,0,0-2.33,4c-.66,1.57-.53,1.62-2.28,1.75a2,2,0,0,0-2.05,2.53,4.32,4.32,0,0,0,2.14,3.18c2.22,1.38,4.42,2.78,6.65,4.13a1.76,1.76,0,0,1,1,1.76c-.06,1.34,0,2.68,0,4,2.28.14,2.28.14,3.2-1.7.06-.12.13-.23.18-.35a1.24,1.24,0,0,1,1.74-.79,24.24,24.24,0,0,0,13.22,0,1.29,1.29,0,0,1,1.81.83,13.13,13.13,0,0,0,.8,1.59.92.92,0,0,0,.56.44c.65.05,1.29,0,2,0a30.2,30.2,0,0,0,0-3,3.4,3.4,0,0,1,1.58-3.41,10,10,0,0,0,4.32-8.3,10.41,10.41,0,0,0-4.07-8,19.9,19.9,0,0,0-12.52-4.56A21.62,21.62,0,0,0,27,28.52a1.25,1.25,0,0,1-1.62-.12A19.71,19.71,0,0,0,23.52,27.28Zm34.46,1,.26-.15a9.62,9.62,0,0,0,.12-1.92,1.49,1.49,0,0,0-.71-.93.91.91,0,0,0-.86.22c-.2.32-.37.88-.21,1.14A11.36,11.36,0,0,0,58,28.29Z"/><path class="b" d="M38.72,27l6.43,1a4.15,4.15,0,0,1,.76.23c.59.23.9.72.59,1.24a1.41,1.41,0,0,1-1.17.55c-1.24-.13-2.46-.5-3.7-.64a23.42,23.42,0,0,0-9.05.61c-.64.17-1.31.27-1.55-.55s.38-1.23,1.07-1.35C34.31,27.66,36.52,27.34,38.72,27Z"/><path class="b" d="M25.21,33.08A2,2,0,0,1,27,35.14a2,2,0,0,1-3.93-.29A1.94,1.94,0,0,1,25.21,33.08Z"/></svg>