<svg xmlns="http://www.w3.org/2000/svg" xmlns:xlink="http://www.w3.org/1999/xlink" viewBox="0 0 77.37 77.37"><defs><style>.a{stroke:#232323;stroke-miterlimit:10;stroke-width:0.5px;fill:url(#a);}.b{fill:#fff;}</style><linearGradient id="a" x1="0.25" y1="38.68" x2="77.12" y2="38.68" gradientUnits="userSpaceOnUse"><stop offset="0" stop-color="#6760cf"/><stop offset="1" stop-color="#00caa4"/></linearGradient></defs><circle class="a" cx="38.68" cy="38.68" r="38.43"/><path class="b" d="M38.19,42.38c-1.85-.09-3.56-.18-5.26-.25s-2.34-1.06-1.54-2.59c2.25-4.33,4.52-8.65,6.77-13,.33-.64.74-1.18,1.53-.95s.84.93.72,1.64l-1,6.38c-.06.4-.11.81-.18,1.35l3.61.2c.67,0,1.34,0,2,.08a1.44,1.44,0,0,1,1.32,2.21C43.78,42,41.4,46.53,39,51.05a1.1,1.1,0,0,1-1.42.62,1,1,0,0,1-.69-1.29c.35-2.22.72-4.44,1.08-6.67C38.07,43.31,38.12,42.91,38.19,42.38Z"/><path class="b" d="M29,19.79A2.26,2.26,0,0,1,31.23,22a2.3,2.3,0,0,1-2.17,2.22A2.23,2.23,0,0,1,26.76,22,2.2,2.2,0,0,1,29,19.79Z"/><path class="b" d="M55.35,26.84A2.15,2.15,0,0,1,57.58,29a2.22,2.22,0,0,1-2.18,2.29A2.25,2.25,0,0,1,53.16,29,2.18,2.18,0,0,1,55.35,26.84Z"/><path class="b" d="M29.1,57.62a2.16,2.16,0,0,1-2.25-2.2,2.21,2.21,0,0,1,4.41-.08A2.16,2.16,0,0,1,29.1,57.62Z"/><path class="b" d="M57.62,48.28a2.18,2.18,0,0,1-2.19,2.25,2.21,2.21,0,1,1,2.19-2.25Z"/><path class="b" d="M21.93,31.28a2.18,2.18,0,0,1-2.21-2.22,2.21,2.21,0,0,1,2.17-2.19,2.29,2.29,0,0,1,2.28,2.19A2.21,2.21,0,0,1,21.93,31.28Z"/><path class="b" d="M48.32,19.77A2.15,2.15,0,0,1,50.54,22a2.21,2.21,0,0,1-2.24,2.21A2.26,2.26,0,0,1,46.11,22,2.2,2.2,0,0,1,48.32,19.77Z"/><path class="b" d="M19.78,48.27a2.21,2.21,0,1,1,4.42.22,2.19,2.19,0,0,1-2.28,2.08A2.16,2.16,0,0,1,19.78,48.27Z"/><path class="b" d="M50.57,55.45a2.16,2.16,0,0,1-2.2,2.14,2.21,2.21,0,0,1-2.23-2.24,2.29,2.29,0,0,1,2.23-2.17A2.2,2.2,0,0,1,50.57,55.45Z"/><path class="b" d="M38.73,21.57a2.24,2.24,0,0,1-2.28-2.19,2.29,2.29,0,0,1,2.19-2.21,2.26,2.26,0,0,1,2.28,2.21A2.22,2.22,0,0,1,38.73,21.57Z"/><path class="b" d="M36.51,58a2.16,2.16,0,0,1,2.16-2.19A2.22,2.22,0,0,1,41,58a2.26,2.26,0,0,1-2.28,2.2A2.19,2.19,0,0,1,36.51,58Z"/><path class="b" d="M19.36,36.54a2.15,2.15,0,0,1,2.22,2.12,2.21,2.21,0,0,1-2.19,2.28,2.26,2.26,0,0,1-2.24-2.25A2.2,2.2,0,0,1,19.36,36.54Z"/><path class="b" d="M58,40.86a2.16,2.16,0,0,1-2.21-2.13A2.18,2.18,0,0,1,58,36.46a2.26,2.26,0,0,1,2.24,2.24A2.21,2.21,0,0,1,58,40.86Z"/></svg>