<svg xmlns="http://www.w3.org/2000/svg" xmlns:xlink="http://www.w3.org/1999/xlink" viewBox="0 0 625.68 221.06"><defs><style>.cls-1{fill:#fff;}.cls-2{fill:url(#linear-gradient);}.cls-3{fill:url(#linear-gradient-2);}</style><linearGradient id="linear-gradient" x1="469.01" y1="42" x2="553.02" y2="42" gradientUnits="userSpaceOnUse"><stop offset="0" stop-color="#992bd4"/><stop offset="1" stop-color="#00caa4"/><stop offset="1" stop-color="#00caa4"/></linearGradient><linearGradient id="linear-gradient-2" x1="487.73" y1="43.15" x2="534.4" y2="43.15" xlink:href="#linear-gradient"/></defs><g id="Layer_2" data-name="Layer 2"><g id="Layer_1-2" data-name="Layer 1"><path class="cls-1" d="M555.72,169.88c0-15.65,0-31.31-.05-47,0-2.22.62-2.85,2.81-2.82,9,.1,18-.18,27,.15,3.53.13,7.06,1.3,10.49,2.31,6.93,2,12.48,6.47,17.16,11.67,3,3.32,5.12,7.54,7.08,11.62a52.29,52.29,0,0,1,5.28,27.85,70.24,70.24,0,0,1-6.36,23,37,37,0,0,1-11,13.86A44.91,44.91,0,0,1,594.76,218a36.76,36.76,0,0,1-10.92,1.7c-8.48.23-17,0-25.47.11-2,0-2.71-.58-2.7-2.69C555.76,201.36,555.72,185.62,555.72,169.88Zm7.72-42.09V212a126.59,126.59,0,0,0,28.12-1.33,1.94,1.94,0,0,0,.72-.21c5.13-3.17,11.46-4.56,15-10.1a59.82,59.82,0,0,1,3.47-4.88c5.11-6.42,7.14-13.89,7.24-21.91.08-5.94.12-11.81-1.69-17.71-2.81-9.17-7.21-16.78-15.36-22.33-5.24-3.57-11-4.95-16.9-5.6C577.33,127.22,570.45,127.79,563.44,127.79Z"/><path class="cls-1" d="M141,198.76c2,2.16,3.69,4.29,5.67,6.13,4.57,4.25,10.39,5.69,16.18,7.57a41.94,41.94,0,0,0,13.17,1.68,3.18,3.18,0,0,0,1.24,0c5.83-2.74,12.48-3.67,16.84-9.51,3.22-4.31,4.26-13.85,0-18a47.78,47.78,0,0,0-15.7-10.35c-4.73-1.9-9.63-3.43-14.26-5.54-3.84-1.75-7.27-4.41-11.12-6.13a19.65,19.65,0,0,1-7.89-6.5c-3-4.1-5.86-8.36-4.85-13.92a11.93,11.93,0,0,0,0-2.24c0-9.06,4.62-15,12.24-19.56,7.47-4.47,15.52-4.48,23.33-3.41a43.37,43.37,0,0,1,25.9,13.34c2,2.12,1.42,3.06-.55,5.19-2.4,2.6-3.24,1.1-4.85-.66-3.21-3.5-7.47-5.54-11.81-7.25-2.56-1-5.56-1.07-7.93-2.37s-4.69-1.32-7.16-1.52a20.14,20.14,0,0,0-10.78,2.49c-1.34.67-2.63,1.44-4,2-5.48,2.37-7.49,7.12-7.65,12.46-.16,5.55,1.72,10.46,7.15,13.33,1.85,1,3.29,2.75,5.16,3.68,3.9,1.93,8,3.55,12,5.29.15.06.33.05.48.11,8.79,3.69,17.59,7.29,24.89,13.75,8.7,7.68,8.05,25,1.56,32.21a48,48,0,0,1-8.13,6.77,13.74,13.74,0,0,1-4.54,1.58c-2.56.66-5.15,1.66-7.72,1.66a103.41,103.41,0,0,1-16.89-1c-4.8-.8-9.63-2.24-13.54-5.58-2.21-1.88-4.49-3.67-6.78-5.46-1-.8-2.45-1.25-3.16-2.24C135.09,203.32,136.38,200.55,141,198.76Z"/><path class="cls-1" d="M61.43,120.73,28,165.68C42.47,183.59,57.58,201,72.09,218.92l-.53.81c-2.44,0-4.88.05-7.32,0a2.2,2.2,0,0,1-1.4-.82c-2.57-3.35-5-6.82-7.64-10.08-1.71-2.1-3.91-3.81-5.66-5.88-3.79-4.46-7.39-9.09-11.15-13.58-4.06-4.84-8.23-9.58-12.32-14.39-.62-.73-1.09-1.61-2-2.95a17,17,0,0,0-3.14,2.54c-3.51,4.49-6.75,9.2-10.31,13.64-2.86,3.57-4.84,7.16-4.55,12,.37,6.37.09,12.79.09,19.11a5,5,0,0,1-1,.37c-6.28.09-5.1.65-5.11-4.82Q0,170,.06,125.14c0-5.42,0-5.42,6-4.79v62.3a13.68,13.68,0,0,0,2.32-1.91c2.82-4.1,5.46-8.33,8.38-12.35,2.28-3.13,5-6,7.33-9,2.7-3.49,5.24-7.1,7.89-10.61,5.26-7,10.56-13.89,15.83-20.85,1.09-1.44,2.09-2.94,3.16-4.39C53.54,120,56.16,119.19,61.43,120.73Z"/><path class="cls-1" d="M302.75,219.51v-3.29c0-13.17-.06-26.33.05-39.5,0-2.42-.68-3.06-3.09-3.05-18.08.1-36.16,0-54.24,0h-3.29c-.08,1-.2,1.82-.2,2.69q0,19.13,0,38.24c0,5.68,0,5.68-6,4.81V120.28c.91-.12,1.72-.26,2.54-.33,2.93-.26,3.62.57,3.59,3.54-.14,13.49-.17,27-.28,40.48,0,1.76.76,2.26,2.44,2.25q28.13-.08,56.24,0c2.19,0,2.17-1.16,2.17-2.69q0-20,0-40v-3.21c1.11-.15,2.06-.33,3-.38,1.95-.12,2.88.73,2.87,2.8q-.17,46.11-.27,92.22C308.38,220.13,308.39,220.13,302.75,219.51Z"/><path class="cls-1" d="M473.14,219.52v-2.65q0-46.6,0-93.2c0-1.13.42-3.12.93-3.22a21.27,21.27,0,0,1,5.91,0c.25,0,.54,1.29.56,2,.06,3.5,0,7,0,10.49q0,38,0,76v3.35h3.1c13.41,0,26.82,0,40.23,0,1,0,2.92.5,3,.95a26.39,26.39,0,0,1-.18,6.08c0,.24-1.17.51-1.79.51q-25.23,0-50.47-.08A10.1,10.1,0,0,1,473.14,219.52Z"/><path class="cls-1" d="M341.61,169.72c0-15.65,0-31.31,0-47,0-1.9.48-2.86,2.51-2.66a11.32,11.32,0,0,0,2.25-.07c2.17-.22,2.92.77,2.92,2.92q-.13,46.45-.2,92.91c0,1.24-.29,3.42-.83,3.55a16.81,16.81,0,0,1-5.88.08c-.41-.05-.92-1.51-.92-2.32q-.07-23.73,0-47.45Z"/><path class="cls-1" d="M105.77,170.46c0,15.48,0,31,0,46.46,0,1.87-.2,2.93-2.5,2.87-4-.1-4.41-.19-4.54-2.89,0-.58,0-1.16,0-1.74l0-91.19c0-3.64,2.22-5.11,5.64-3.6a3.11,3.11,0,0,1,1.31,1.88,10.84,10.84,0,0,1,.1,2.74Z"/><path class="cls-1" d="M367.44,63.85c0-.68-.11-1.49-.12-2.3,0-11.67.06-23.34-.05-35,0-2.25.64-2.89,2.82-2.78,4.83.25,9.68,0,14.48.45,7.37.67,11.72,6.31,9.55,12.69-.88,2.6-3.34,4.66-5,6.88-.38-.17-.1,0,.19.08,4.1,1.42,6.61,4.06,6.61,8.63,0,4.82-2.08,8.32-6.54,10.26a9.88,9.88,0,0,1-3.56,1C379.75,63.9,373.7,63.85,367.44,63.85Zm5.85-4.07c4-.22,7.87-.19,11.62-.72,3.32-.46,5.2-3.07,5.26-6.32s-1.66-5.71-5-6.18c-3.88-.55-7.86-.44-11.88-.61Zm0-17.78c3.83-.31,7.5-.29,11-1,3.13-.63,4.51-3.14,4.38-6.39-.13-3.07-1.71-5.27-4.94-5.64a95.73,95.73,0,0,0-10.46-.08Z"/><path class="cls-1" d="M190.47,64.07c-.06-.88-.15-1.62-.15-2.35,0-11.74,0-23.49,0-35.23,0-2,.47-2.81,2.62-2.72,4.9.22,9.83,0,14.72.34,9.28.67,15.36,5.8,17.18,15,1.64,8.22.32,16-7,21.22a20.71,20.71,0,0,1-9.61,3.63C202.46,64.49,196.6,64.07,190.47,64.07Zm5.87-4.84c3.84,0,7.56.13,11.27-.06a11.87,11.87,0,0,0,4.5-1.3c7.56-3.77,10-16.42,4.33-23.83-1.42-1.88-3.67-3.84-5.84-4.3-4.62-1-9.44-1-14.26-1.42Z"/><path class="cls-1" d="M315,64.12c-.05-1-.13-1.79-.13-2.6,0-11.67.06-23.33-.05-35,0-2.26.68-2.85,2.84-2.76,4.82.22,9.66,0,14.47.34,9.38.69,15.54,5.91,17.28,15.15,1.53,8.12.08,15.62-6.91,21.1a17.2,17.2,0,0,1-10.16,3.71C326.63,64.25,321,64.12,315,64.12Zm6-35.66V59.15c4.17,0,8.17.32,12.11-.09A11,11,0,0,0,342,52.61a19.18,19.18,0,0,0,.52-16c-1.55-4-4.5-6.77-8.74-7.4S325.33,28.71,320.92,28.46Z"/><path class="cls-1" d="M175.4,24.27a4.55,4.55,0,0,1,.81-.38c5-.52,5-.52,5,4.4,0,6.74.12,13.49,0,20.23C180.88,61.76,168,69,156.45,62.5a13.25,13.25,0,0,1-7.11-10.86c-.48-8-.26-16.14-.33-24.21,0-1.07,0-2.14,0-3.41h5.75c0,7,0,13.81,0,20.63a36.41,36.41,0,0,0,.44,6.69A9.67,9.67,0,0,0,165.8,59.5c5.37-.41,9.18-4,9.39-9.53.28-7.48.16-15,.21-22.47C175.41,26.43,175.4,25.36,175.4,24.27Z"/><path class="cls-1" d="M145.19,64.24a30.11,30.11,0,0,0-3.05,0,3.33,3.33,0,0,1-3.93-2.61,56.23,56.23,0,0,0-2.64-6.73,3.2,3.2,0,0,0-2.26-1.57c-4.66-.15-9.33,0-14-.11A2.21,2.21,0,0,0,116.76,55c-.49,1.59-1.17,3.12-1.77,4.67-1.9,4.91-1.9,4.9-7.59,4.44.28-.88.5-1.7.81-2.49C112.93,49.75,117.7,38,122.32,26.1c.76-2,1.82-2.43,3.72-2.33s3.19-.05,4,2.2c4.64,12,9.49,24,14.27,36C144.6,62.54,144.8,63.17,145.19,64.24Zm-19-33.71-7,18.29h14.06C130.91,42.71,128.66,36.87,126.22,30.53Z"/><path class="cls-1" d="M288.33,28.57V41.51h15.26v4.62H288.42V59.46h18.79v4.61H282.5c-.06-.75-.17-1.54-.17-2.33,0-11.75,0-23.5-.05-35.25,0-2,.46-2.76,2.61-2.72,6.67.13,13.33,0,20,.05.73,0,1.46.09,2.33.15v4.6Z"/><path class="cls-1" d="M411.49,219.74q-13,0-25.95,0c-1.62,0-2.91,0-2.93-2.27,0-4.27.22-5,2.84-5.21.5,0,1,0,1.5,0l49.91,0c3.22,0,3.46.44,3.3,5.29-.08,2.42-1.64,2.39-3.47,2.38-8.4-.07-16.8,0-25.2,0Z"/><path class="cls-1" d="M382.18,121.58h53.69c3.05,0,3.34.3,3.25,3.44,0,1.16-.15,2.31-.25,3.72-1.06.07-2,.17-3,.17-17.05,0-34.11,0-51.16,0-1.94,0-2.77-.47-2.58-2.49C382.29,125,382.18,123.48,382.18,121.58Z"/><path class="cls-1" d="M419.7,64.13h-5.86c0-4.41.14-8.72-.07-13a12.22,12.22,0,0,0-1.5-5.33c-3.79-6.55-7.81-13-11.73-19.44-.41-.68-.77-1.4-1.18-2.14,4.84-1.08,5.95-.64,8.16,3.1,1.56,2.65,3.13,5.3,4.68,8s3,5.15,4.59,7.89l9.3-15.88c2.2-3.76,3.47-4.25,8.12-3-.5.89-1,1.74-1.46,2.57-4,6.6-8.08,13.18-12,19.83a7.55,7.55,0,0,0-1,3.48C419.64,54.71,419.7,59.28,419.7,64.13Z"/><path class="cls-1" d="M245.48,23.82H273c4.54,0,4.54,0,3.71,4.94H264.15v35.3H258.3V28.88H245.48Z"/><path class="cls-1" d="M382.78,167.72h56.87v5.94h-2.94l-50,.07c-4.15,0-4.15,0-4.06-4C382.7,169.12,382.74,168.55,382.78,167.72Z"/><path class="cls-1" d="M239.12,24v40h-5.8V27.46c0-3.74,0-3.75,3.84-3.64C237.73,23.84,238.29,23.93,239.12,24Z"/><circle class="cls-2" cx="511.02" cy="42" r="42"/><circle class="cls-1" cx="511.02" cy="42" r="39.09"/><path class="cls-3" d="M505.65,47.66c.09-.11.16-.2.24-.28q9.79-9.81,19.6-19.6a5.17,5.17,0,0,1,8.86,2.89,5.1,5.1,0,0,1-1.51,4.39L509.38,58.52a5.16,5.16,0,0,1-6.52.76,4.31,4.31,0,0,1-.78-.63q-6.4-6.37-12.79-12.78a5.17,5.17,0,1,1,7.3-7.33l8.79,8.84A3.8,3.8,0,0,1,505.65,47.66Z"/></g></g></svg>