<svg width="22" height="22" viewBox="0 0 22 22" fill="none" xmlns="http://www.w3.org/2000/svg">
<path d="M20.784 16.017C21.581 14.467 22 12.741 22 11C22 4.935 17.065 0 11 0C4.935 0 0 4.935 0 11C0 17.065 4.935 22 11 22C12.742 22 14.468 21.581 16.018 20.785L20.758 21.97C20.838 21.99 20.919 22 21 22C21.262 22 21.518 21.897 21.707 21.707C21.955 21.458 22.056 21.098 21.97 20.757L20.784 16.017ZM18.751 16.127L19.625 19.625L16.127 18.75C15.88 18.689 15.618 18.724 15.396 18.848C14.055 19.602 12.534 20 11 20C6.037 20 2 15.962 2 11C2 6.038 6.037 2 11 2C15.963 2 20 6.038 20 11C20 12.534 19.602 14.054 18.849 15.395C18.724 15.618 18.688 15.88 18.751 16.127Z" fill="white"/>
</svg>
