<?xml version="1.0" encoding="utf-8"?>
<!-- Generator: Adobe Illustrator 24.3.0, SVG Export Plug-In . SVG Version: 6.00 Build 0)  -->
<svg version="1.1" id="Layer_1" xmlns="http://www.w3.org/2000/svg" xmlns:xlink="http://www.w3.org/1999/xlink" x="0px" y="0px"
	 viewBox="0 0 40 40" style="enable-background:new 0 0 40 40;" xml:space="preserve">
<style type="text/css">
	.st0{fill:url(#ellipse_1_);}
	.st1{fill:#FFFFFF;}
</style>
<g>
	<linearGradient id="ellipse_1_" gradientUnits="userSpaceOnUse" x1="6.728314e-06" y1="20" x2="40" y2="20">
		<stop  offset="0" style="stop-color:#25A4B4"/>
		<stop  offset="1" style="stop-color:#007CAA"/>
	</linearGradient>
	<circle id="ellipse" class="st0" cx="20" cy="20" r="20"/>
	<path id="logo" class="st1" d="M28.7,13.5c0,0-2.5-1.9-5.4-2.2L23,11.9c2.7,0.6,3.9,1.6,5.1,2.7c-2.2-1.1-4.4-2.2-8.1-2.2
		s-5.9,1.1-8.1,2.2c1.3-1.1,2.7-2.2,5.1-2.7l-0.3-0.5c-3.1,0.3-5.4,2.2-5.4,2.2s-2.8,4-3.2,11.9c2.8,3.2,7,3.2,7,3.2l0.9-1.2
		c-1.5-0.5-3.2-1.5-4.7-3.2c1.8,1.3,4.4,2.7,8.7,2.7s6.9-1.4,8.7-2.7C27.2,26,25.5,27,24,27.5l0.9,1.2c0,0,4.2,0,7-3.2
		C31.4,17.5,28.7,13.5,28.7,13.5z M16.5,23.3c-1.1,0-1.9-1-1.9-2.2s0.8-2.2,1.9-2.2s1.9,1,1.9,2.2S17.5,23.3,16.5,23.3z M23.5,23.3
		c-1.1,0-1.9-1-1.9-2.2s0.8-2.2,1.9-2.2s1.9,1,1.9,2.2S24.6,23.3,23.5,23.3z"/>
</g>
</svg>
