<?xml version="1.0" encoding="utf-8"?>
<!-- Generator: Adobe Illustrator 24.3.0, SVG Export Plug-In . SVG Version: 6.00 Build 0)  -->
<svg version="1.1" id="Layer_1" xmlns="http://www.w3.org/2000/svg" xmlns:xlink="http://www.w3.org/1999/xlink" x="0px" y="0px"
	 viewBox="0 0 30 30" style="enable-background:new 0 0 30 30;" xml:space="preserve">
<style type="text/css">
	.st0{fill:#FFFFFF;}
</style>
<path id="logo" class="st0" d="M25.9,6.9c0,0-3.1-2.4-6.8-2.7l-0.3,0.7c3.3,0.8,4.8,2,6.4,3.4C22.4,6.8,19.7,5.5,15,5.5
	S7.5,6.8,4.8,8.2c1.6-1.4,3.4-2.7,6.4-3.4l-0.3-0.7C7.1,4.5,4.1,6.9,4.1,6.9s-3.5,5-4.1,14.9c3.5,4,8.8,4.1,8.8,4.1l1.1-1.5
	c-1.9-0.7-4-1.8-5.9-4c2.2,1.7,5.5,3.4,10.9,3.4s8.7-1.7,10.9-3.4c-1.8,2.1-4,3.3-5.9,4l1.1,1.5c0,0,5.3,0,8.8-4.1
	C29.3,11.9,25.9,6.9,25.9,6.9z M10.6,19.1c-1.3,0-2.4-1.2-2.4-2.7s1.1-2.7,2.4-2.7s2.4,1.2,2.4,2.7S11.9,19.1,10.6,19.1z M19.4,19.1
	c-1.3,0-2.4-1.2-2.4-2.7s1.1-2.7,2.4-2.7s2.4,1.2,2.4,2.7S20.7,19.1,19.4,19.1z"/>
</svg>
