<svg width="32" height="32" viewBox="0 0 32 32" fill="none" xmlns="http://www.w3.org/2000/svg">
<path d="M27.1578 7.13742C26.2965 5.81053 25.0565 4.77617 23.4735 4.06307C21.9053 3.35772 20.036 3 17.9184 3H11.6634C11.0424 3.0008 10.4367 3.19227 9.92805 3.54851C9.41943 3.90475 9.03247 4.40859 8.81949 4.99189H6.86252C6.10333 4.99189 5.37524 5.29348 4.83841 5.8303C4.30158 6.36713 4 7.09522 4 7.85441V29.2593H8.00241C8.71834 29.259 9.40821 28.9906 9.93595 28.5068C10.4637 28.023 10.791 27.359 10.8533 26.6458H12.742C13.5442 26.6448 14.3134 26.3257 14.8808 25.7584C15.4481 25.1911 15.7672 24.4219 15.7682 23.6196V22.766C16.9458 22.6181 18.0958 22.3006 19.1824 21.8233C20.1042 21.4177 20.9526 20.8627 21.6935 20.1805C22.305 20.0249 22.902 19.8172 23.4782 19.5598C25.0604 18.8474 26.3003 17.8193 27.1617 16.5033C28.023 15.1872 28.4629 13.612 28.4629 11.8266C28.4629 10.0411 28.0206 8.46664 27.1578 7.13742Z" fill="url(#paint0_linear_98_30)" stroke="white" stroke-width="4" stroke-miterlimit="10"/>
<path d="M19.1793 6.0827C20.7964 6.81159 22.0442 7.85163 22.9226 9.20285C23.801 10.554 24.2407 12.143 24.2417 13.9696C24.2417 15.7952 23.802 17.3784 22.9226 18.7192C22.0432 20.0601 20.7954 21.0947 19.1793 21.8231C17.5607 22.5509 15.6539 22.9148 13.459 22.9148H10.8649V26.3966C10.8649 27.1558 10.5633 27.8839 10.0265 28.4207C9.48969 28.9575 8.7616 29.2591 8.00241 29.2591H4V7.85423C4 7.09503 4.30158 6.36694 4.83841 5.83012C5.37524 5.29328 6.10334 4.9917 6.86252 4.9917H13.4582C15.6531 4.9917 17.5601 5.35537 19.1793 6.0827Z" fill="url(#paint1_linear_98_30)"/>
<path d="M23.3464 4.34645C24.8807 5.03706 26.0645 6.02382 26.8979 7.30674C27.7313 8.58967 28.148 10.0971 28.148 11.829C28.148 13.562 27.7313 15.064 26.8979 16.335C26.0645 17.6061 24.8807 18.5874 23.3464 19.279C21.811 19.9696 20.0017 20.3149 17.9185 20.3149H15.4579V23.6198C15.4579 24.3401 15.1718 25.0308 14.6625 25.5402C14.1532 26.0495 13.4624 26.3356 12.7421 26.3356H8.94763V6.02641C8.94763 5.30612 9.23377 4.61533 9.74309 4.10601C10.2524 3.59668 10.9432 3.31055 11.6635 3.31055H17.9216C20.0022 3.31055 21.8105 3.65585 23.3464 4.34645ZM20.5529 14.3129C21.2326 13.7319 21.5727 12.9043 21.5733 11.8298C21.5738 10.7553 21.2336 9.92225 20.5529 9.33045C19.8726 8.73813 18.8639 8.44223 17.5267 8.44275H15.4579V15.1851H17.5235C18.8613 15.1845 19.8701 14.8939 20.5498 14.3129H20.5529Z" fill="white"/>
<path d="M12.7606 26.6458H8.65576V6.02625C8.65576 5.22364 8.9746 4.4539 9.54213 3.88637C10.1097 3.31883 10.8794 3 11.682 3H17.9401C20.0577 3 21.927 3.35772 23.4952 4.06307C25.0782 4.77617 26.3182 5.81053 27.1795 7.13742C28.0408 8.46431 28.48 10.0449 28.48 11.8289C28.48 13.6128 28.0424 15.1872 27.1787 16.5056C26.3151 17.824 25.0774 18.8498 23.4952 19.5621C21.927 20.2674 20.0577 20.6252 17.9401 20.6252H15.7868V23.6196C15.7858 24.4219 15.4667 25.1911 14.8994 25.7584C14.332 26.3257 13.5629 26.6448 12.7606 26.6458ZM9.27653 26.0251H12.7606C13.3986 26.0251 14.0104 25.7716 14.4615 25.3205C14.9126 24.8694 15.1661 24.2576 15.1661 23.6196V20.0044H17.937C19.9662 20.0044 21.7493 19.6653 23.2376 18.9957C24.7119 18.333 25.8604 17.3809 26.6565 16.1649C27.4526 14.949 27.8561 13.491 27.8561 11.8289C27.8561 10.1668 27.4526 8.70253 26.6581 7.47962C25.8635 6.25671 24.7119 5.29607 23.2392 4.6334C21.7517 3.96374 19.9685 3.62465 17.9394 3.62465H11.682C11.044 3.62465 10.4322 3.87808 9.98108 4.3292C9.52997 4.78031 9.27653 5.39215 9.27653 6.03013V26.0251ZM17.5452 15.4953H15.1661V8.13143H17.5421C18.9504 8.13143 20.0368 8.45578 20.7716 9.09595C21.5196 9.7462 21.8991 10.6657 21.8991 11.8289C21.8991 12.992 21.5189 13.9085 20.7701 14.5486C20.0352 15.1764 18.9489 15.4945 17.5421 15.4945L17.5452 15.4953ZM15.7899 14.8745H17.5452C18.7999 14.8745 19.7504 14.606 20.3697 14.0776C20.9889 13.5492 21.2814 12.8182 21.2814 11.8273C21.2814 10.8364 20.9827 10.0969 20.3673 9.5623C19.752 9.02766 18.7991 8.75064 17.5452 8.75064H15.7868L15.7899 14.8745Z" fill="url(#paint2_linear_98_30)"/>
<defs>
<linearGradient id="paint0_linear_98_30" x1="3.60504" y1="16.1293" x2="28.854" y2="16.1293" gradientUnits="userSpaceOnUse">
<stop stop-color="#6760CF"/>
<stop offset="1" stop-color="#00CAA4"/>
</linearGradient>
<linearGradient id="paint1_linear_98_30" x1="4" y1="17.1254" x2="24.2402" y2="17.1254" gradientUnits="userSpaceOnUse">
<stop stop-color="#6760CF"/>
<stop offset="1" stop-color="#00CAA4"/>
</linearGradient>
<linearGradient id="paint2_linear_98_30" x1="8.65266" y1="14.8225" x2="28.4769" y2="14.8225" gradientUnits="userSpaceOnUse">
<stop stop-color="#6760CF"/>
<stop offset="1" stop-color="#00CAA4"/>
</linearGradient>
</defs>
</svg>
