<svg width="32" height="32" viewBox="0 0 32 32" fill="none" xmlns="http://www.w3.org/2000/svg">
<path d="M16 26.45L15.6 26.1C6.5 18.7 4.05 16.1 4.05 11.85C4.05 8.35 6.9 5.55 10.35 5.55C13.25 5.55 14.9 7.2 16 8.45C17.1 7.2 18.75 5.55 21.65 5.55C25.15 5.55 27.95 8.4 27.95 11.85C27.95 16.1 25.5 18.7 16.4 26.1L16 26.45ZM10.35 6.85C7.6 6.85 5.35 9.1 5.35 11.85C5.35 15.5 7.65 17.9 16 24.75C24.35 17.9 26.65 15.5 26.65 11.85C26.65 9.1 24.4 6.85 21.65 6.85C19.15 6.85 17.8 8.35 16.75 9.55L16 10.4L15.25 9.55C14.2 8.35 12.85 6.85 10.35 6.85Z" fill="white"/>
</svg>
