<svg width="1217" height="352" viewBox="0 0 1217 352" fill="none" xmlns="http://www.w3.org/2000/svg">
<path d="M450.24 53.42C457.227 56.4078 463.18 61.3843 467.36 67.73C471.36 73.91 473.36 81.1734 473.36 89.52C473.36 97.8667 471.36 105.103 467.36 111.23C463.154 117.521 457.204 122.449 450.24 125.41C442.847 128.743 434.13 130.41 424.09 130.41H404.76V159.41H373.38V48.42H424.09C434.13 48.42 442.847 50.0867 450.24 53.42ZM436.76 101.43C440.04 98.6367 441.68 94.6367 441.68 89.4301C441.68 84.2234 440.04 80.2234 436.76 77.4301C433.493 74.5767 428.633 73.1534 422.18 73.16H404.76V105.63H422.19C428.643 105.63 433.5 104.23 436.76 101.43Z" fill="white"/>
<path d="M514.5 154.13C505.338 149.321 497.665 142.098 492.312 133.243C486.959 124.388 484.13 114.237 484.13 103.89C484.13 93.5425 486.959 83.3921 492.312 74.5369C497.665 65.6817 505.338 58.4589 514.5 53.65C524.319 48.7507 535.142 46.2004 546.115 46.2004C557.088 46.2004 567.911 48.7507 577.73 53.65C586.898 58.4541 594.576 65.6752 599.934 74.531C605.291 83.3868 608.123 93.5397 608.123 103.89C608.123 114.24 605.291 124.393 599.934 133.249C594.576 142.105 586.898 149.326 577.73 154.13C567.911 159.029 557.088 161.58 546.115 161.58C535.142 161.58 524.319 159.029 514.5 154.13V154.13ZM561.33 131.62C565.89 128.969 569.623 125.102 572.11 120.45C574.713 115.318 576.069 109.644 576.069 103.89C576.069 98.1355 574.713 92.4621 572.11 87.33C569.62 82.6803 565.888 78.8133 561.33 76.16C556.683 73.5568 551.446 72.1898 546.12 72.1898C540.794 72.1898 535.557 73.5568 530.91 76.16C526.35 78.8108 522.617 82.6784 520.13 87.33C517.527 92.4621 516.171 98.1355 516.171 103.89C516.171 109.644 517.527 115.318 520.13 120.45C522.614 125.104 526.347 128.972 530.91 131.62C535.557 134.223 540.794 135.59 546.12 135.59C551.446 135.59 556.683 134.223 561.33 131.62V131.62Z" fill="white"/>
<path d="M637.01 148.11C627.87 139.13 623.3 126.397 623.3 109.91V48.42H654.68V108.96C654.68 126.713 661.703 135.59 675.75 135.59C689.796 135.59 696.77 126.713 696.67 108.96V48.42H727.57V109.91C727.57 126.39 723.003 139.123 713.87 148.11C704.736 157.097 691.926 161.587 675.44 161.58C658.986 161.58 646.176 157.09 637.01 148.11Z" fill="white"/>
<path d="M854.36 48.42V159.36H828.53L779.53 100.24V159.36H748.78V48.42H774.61L823.61 107.54V48.42H854.36Z" fill="white"/>
<path d="M876.54 48.42H929C941.153 48.42 951.93 50.6934 961.33 55.2401C970.335 59.4337 977.932 66.148 983.2 74.5701C988.38 82.9167 990.97 92.69 990.97 103.89C990.97 115.09 988.38 124.863 983.2 133.21C977.935 141.635 970.338 148.35 961.33 152.54C951.923 157.093 941.147 159.367 929 159.36H876.54V48.42ZM927.73 134.32C937.243 134.32 944.877 131.627 950.63 126.24C956.383 120.853 959.263 113.403 959.27 103.89C959.27 94.3833 956.39 86.9367 950.63 81.55C944.87 76.1634 937.237 73.4667 927.73 73.46H907.92V134.32H927.73Z" fill="white"/>
<path d="M1096.51 135.11V159.36H1007.44V48.42H1094.44V72.67H1038.44V91.3701H1087.76V114.83H1038.47V135.11H1096.51Z" fill="white"/>
<path d="M1162.44 129.88H1145.32V159.36H1113.94V48.42H1164.65C1174.69 48.42 1183.41 50.0867 1190.8 53.42C1197.79 56.4078 1203.74 61.3843 1207.92 67.73C1211.92 73.91 1213.92 81.1734 1213.92 89.52C1214.09 96.913 1212.14 104.2 1208.3 110.52C1204.38 116.623 1198.8 121.479 1192.21 124.52L1216.14 159.39H1182.54L1162.44 129.88ZM1177.33 77.42C1174.06 74.5667 1169.2 73.1434 1162.75 73.15H1145.32V105.63H1162.76C1169.21 105.63 1174.07 104.23 1177.34 101.43C1180.61 98.6301 1182.25 94.6301 1182.26 89.4301C1182.25 84.2967 1180.61 80.2934 1177.33 77.42V77.42Z" fill="white"/>
<path d="M432.39 214.48C437.678 217.403 442.042 221.746 444.99 227.02C447.986 232.777 449.55 239.17 449.55 245.66C449.55 252.149 447.986 258.543 444.99 264.3C442.062 269.604 437.694 273.971 432.39 276.9C426.812 279.949 420.537 281.496 414.18 281.39C409.427 281.444 404.719 280.454 400.39 278.49C396.223 276.562 392.578 273.665 389.76 270.04V306.2H377.09V210.66H389.24V221.73C391.975 217.922 395.661 214.898 399.93 212.96C404.405 210.934 409.268 209.91 414.18 209.96C420.539 209.867 426.813 211.425 432.39 214.48V214.48ZM425.2 267.21C428.764 265.138 431.685 262.12 433.64 258.49C435.678 254.508 436.741 250.098 436.741 245.625C436.741 241.152 435.678 236.742 433.64 232.76C431.694 229.145 428.769 226.151 425.2 224.12C421.507 222.075 417.34 221.04 413.12 221.12C408.934 221.067 404.811 222.138 401.18 224.22C397.644 226.272 394.733 229.249 392.76 232.83C390.634 236.755 389.565 241.167 389.66 245.63C389.558 250.101 390.59 254.525 392.66 258.49C394.589 262.139 397.516 265.163 401.1 267.21C404.79 269.239 408.934 270.303 413.145 270.303C417.357 270.303 421.5 269.239 425.19 267.21H425.2Z" fill="white"/>
<path d="M489 213.16C493.943 210.915 499.334 209.834 504.76 210V222.27C503.797 222.169 502.828 222.126 501.86 222.14C494.987 222.14 489.597 224.183 485.69 228.27C481.783 232.357 479.807 238.177 479.76 245.73V280.57H467.1V210.66H479.24V222.4C481.434 218.365 484.851 215.13 489 213.16V213.16Z" fill="white"/>
<path d="M530.83 276.73C525.405 273.768 520.905 269.362 517.83 264C514.753 258.352 513.141 252.022 513.141 245.59C513.141 239.158 514.753 232.828 517.83 227.18C520.894 221.824 525.398 217.435 530.83 214.51C536.591 211.421 543.045 209.855 549.58 209.96C556.091 209.852 562.52 211.419 568.25 214.51C573.652 217.452 578.129 221.839 581.18 227.18C584.258 232.828 585.87 239.158 585.87 245.59C585.87 252.022 584.258 258.352 581.18 264C578.12 269.349 573.647 273.754 568.25 276.73C562.533 279.864 556.099 281.456 549.58 281.35C543.037 281.45 536.578 279.859 530.83 276.73V276.73ZM561.65 267.17C565.208 265.109 568.113 262.087 570.03 258.45C572.03 254.456 573.071 250.051 573.071 245.585C573.071 241.119 572.03 236.714 570.03 232.72C568.121 229.098 565.213 226.099 561.65 224.08C557.938 222.084 553.79 221.04 549.575 221.04C545.361 221.04 541.212 222.084 537.5 224.08C533.929 226.11 531 229.104 529.05 232.72C527.012 236.702 525.95 241.112 525.95 245.585C525.95 250.058 527.012 254.468 529.05 258.45C531.009 262.08 533.934 265.098 537.5 267.17C541.2 269.203 545.354 270.27 549.575 270.27C553.797 270.27 557.951 269.203 561.65 267.17V267.17Z" fill="white"/>
<path d="M642.76 276.51C640.743 278.179 638.405 279.415 635.89 280.14C633.151 280.973 630.303 281.395 627.44 281.39C620.406 281.39 614.953 279.5 611.08 275.72C607.206 271.94 605.273 266.53 605.28 259.49V221.08H593.39V210.66H605.27V195.35H617.93V210.66H637.99V221.08H617.93V258.96C617.93 262.74 618.876 265.643 620.77 267.67C622.663 269.697 625.37 270.697 628.89 270.67C632.475 270.766 635.979 269.598 638.79 267.37L642.76 276.51Z" fill="white"/>
<path d="M666.89 276.73C661.464 273.769 656.965 269.362 653.89 264C650.813 258.352 649.2 252.022 649.2 245.59C649.2 239.158 650.813 232.828 653.89 227.18C656.954 221.824 661.457 217.435 666.89 214.51C672.673 211.52 679.089 209.96 685.6 209.96C692.111 209.96 698.526 211.52 704.31 214.51C709.712 217.452 714.188 221.839 717.24 227.18C720.317 232.828 721.93 239.158 721.93 245.59C721.93 252.022 720.317 258.352 717.24 264C714.18 269.35 709.706 273.754 704.31 276.73C698.54 279.764 692.119 281.349 685.6 281.349C679.081 281.349 672.66 279.764 666.89 276.73V276.73ZM697.71 267.17C701.268 265.109 704.172 262.087 706.09 258.45C708.089 254.456 709.13 250.051 709.13 245.585C709.13 241.119 708.089 236.714 706.09 232.72C704.181 229.098 701.272 226.099 697.71 224.08C693.998 222.084 689.849 221.04 685.635 221.04C681.421 221.04 677.272 222.084 673.56 224.08C669.988 226.11 667.06 229.104 665.11 232.72C663.072 236.702 662.009 241.112 662.009 245.585C662.009 250.058 663.072 254.468 665.11 258.45C667.069 262.08 669.993 265.098 673.56 267.17C677.26 269.203 681.413 270.27 685.635 270.27C689.857 270.27 694.01 269.203 697.71 267.17V267.17Z" fill="white"/>
<path d="M750.89 276.73C745.433 273.784 740.891 269.394 737.76 264.04C734.644 258.404 733.01 252.07 733.01 245.63C733.01 239.19 734.644 232.856 737.76 227.22C740.876 221.86 745.423 217.473 750.89 214.55C756.76 211.445 763.321 209.88 769.96 210C775.851 209.887 781.683 211.197 786.96 213.82C791.83 216.281 795.853 220.144 798.51 224.91L788.87 231.11C786.85 227.93 784.029 225.336 780.69 223.59C777.338 221.896 773.626 221.035 769.87 221.08C765.567 220.998 761.316 222.032 757.53 224.08C753.901 226.079 750.923 229.077 748.95 232.72C746.834 236.675 745.766 241.106 745.85 245.59C745.756 250.117 746.823 254.593 748.95 258.59C750.923 262.233 753.901 265.232 757.53 267.23C761.316 269.278 765.567 270.312 769.87 270.23C773.626 270.275 777.338 269.414 780.69 267.72C784.029 265.974 786.85 263.38 788.87 260.2L798.51 266.27C795.844 271.045 791.825 274.924 786.96 277.42C781.696 280.085 775.859 281.42 769.96 281.31C763.316 281.439 756.751 279.862 750.89 276.73V276.73Z" fill="white"/>
<path d="M824.99 276.73C819.567 273.765 815.068 269.36 811.99 264C808.918 258.35 807.31 252.021 807.31 245.59C807.31 239.159 808.918 232.83 811.99 227.18C815.059 221.829 819.562 217.441 824.99 214.51C830.773 211.52 837.189 209.96 843.7 209.96C850.21 209.96 856.626 211.52 862.41 214.51C867.807 217.458 872.283 221.843 875.34 227.18C878.411 232.83 880.02 239.159 880.02 245.59C880.02 252.021 878.411 258.35 875.34 264C872.274 269.345 867.802 273.748 862.41 276.73C856.64 279.764 850.219 281.349 843.7 281.349C837.181 281.349 830.759 279.764 824.99 276.73V276.73ZM855.81 267.17C859.365 265.106 862.269 262.085 864.19 258.45C866.182 254.454 867.219 250.05 867.219 245.585C867.219 241.12 866.182 236.716 864.19 232.72C862.278 229.1 859.37 226.102 855.81 224.08C852.098 222.084 847.949 221.04 843.735 221.04C839.52 221.04 835.372 222.084 831.66 224.08C828.086 226.107 825.157 229.102 823.21 232.72C821.172 236.702 820.109 241.112 820.109 245.585C820.109 250.058 821.172 254.468 823.21 258.45C825.165 262.082 828.091 265.101 831.66 267.17C835.359 269.203 839.513 270.27 843.735 270.27C847.956 270.27 852.11 269.203 855.81 267.17V267.17Z" fill="white"/>
<path d="M897.57 182.73H910.24V280.65H897.57V182.73Z" fill="white"/>
<path d="M305.44 60.32C294.34 43.22 278.36 29.89 257.96 20.7C237.75 11.61 213.66 7 186.37 7H105.76C97.7574 7.01029 89.951 9.47777 83.3963 14.0688C76.8415 18.6597 71.8547 25.1528 69.11 32.67H43.89C34.1062 32.67 24.7231 36.5566 17.8048 43.4748C10.8866 50.393 7 59.7762 7 69.56V345.41H58.58C67.8064 345.407 76.6969 341.948 83.4981 335.713C90.2992 329.478 94.5172 320.921 95.32 311.73H119.66C129.999 311.717 139.911 307.604 147.223 300.293C154.534 292.982 158.647 283.069 158.66 272.73V261.73C173.836 259.824 188.656 255.732 202.66 249.58C214.539 244.354 225.473 237.201 235.02 228.41C242.901 226.404 250.595 223.728 258.02 220.41C278.41 211.23 294.39 197.98 305.49 181.02C316.59 164.06 322.26 143.76 322.26 120.75C322.26 97.74 316.56 77.45 305.44 60.32Z" fill="url(#paint0_linear_46_157)" stroke="white" stroke-width="13" stroke-miterlimit="10"/>
<path d="M202.62 46.73C223.46 56.1234 239.54 69.5267 250.86 86.9401C262.18 104.353 267.847 124.83 267.86 148.37C267.86 171.897 262.193 192.3 250.86 209.58C239.527 226.86 223.447 240.193 202.62 249.58C181.76 258.96 157.187 263.65 128.9 263.65H95.47V308.52C95.47 318.304 91.5834 327.687 84.6652 334.605C77.747 341.523 68.3639 345.41 58.58 345.41H7V69.5601C7 59.7762 10.8866 50.3931 17.8048 43.4749C24.7231 36.5566 34.1062 32.67 43.89 32.67H128.89C157.177 32.67 181.753 37.3567 202.62 46.73Z" fill="url(#paint1_linear_46_157)"/>
<path d="M256.32 24.35C276.093 33.25 291.35 45.9667 302.09 62.5C312.83 79.0334 318.2 98.46 318.2 120.78C318.2 143.113 312.83 162.47 302.09 178.85C291.35 195.23 276.093 207.877 256.32 216.79C236.533 225.69 213.217 230.14 186.37 230.14H154.66V272.73C154.66 282.013 150.973 290.915 144.409 297.479C137.845 304.043 128.943 307.73 119.66 307.73H70.76V46C70.76 36.7175 74.4475 27.8151 81.0113 21.2513C87.575 14.6875 96.4774 11 105.76 11H186.41C213.223 11 236.527 15.45 256.32 24.35ZM220.32 152.79C229.08 145.303 233.463 134.637 233.47 120.79C233.477 106.943 229.093 96.2067 220.32 88.58C211.553 80.9467 198.553 77.1333 181.32 77.14H154.66V164.03H181.28C198.52 164.023 211.52 160.277 220.28 152.79H220.32Z" fill="white"/>
<path d="M119.66 311.73H66.76V46C66.76 35.6566 70.8689 25.7368 78.1828 18.4229C85.4967 11.1089 95.4166 7 105.76 7H186.41C213.7 7 237.79 11.61 258 20.7C278.4 29.89 294.38 43.22 305.48 60.32C316.58 77.42 322.24 97.79 322.24 120.78C322.24 143.77 316.6 164.06 305.47 181.05C294.34 198.04 278.39 211.26 258 220.44C237.79 229.53 213.7 234.14 186.41 234.14H158.66V272.73C158.647 283.069 154.534 292.982 147.223 300.293C139.911 307.604 129.999 311.717 119.66 311.73V311.73ZM74.76 303.73H119.66C127.882 303.73 135.767 300.464 141.58 294.65C147.394 288.837 150.66 280.952 150.66 272.73V226.14H186.37C212.52 226.14 235.5 221.77 254.68 213.14C273.68 204.6 288.48 192.33 298.74 176.66C309 160.99 314.2 142.2 314.2 120.78C314.2 99.36 309 80.49 298.76 64.73C288.52 48.97 273.68 36.59 254.7 28.05C235.53 19.42 212.55 15.05 186.4 15.05H105.76C97.5383 15.05 89.6533 18.3161 83.8397 24.1297C78.0261 29.9433 74.76 37.8283 74.76 46.05V303.73ZM181.32 168.03H150.66V73.13H181.28C199.43 73.13 213.43 77.31 222.9 85.56C232.54 93.94 237.43 105.79 237.43 120.78C237.43 135.77 232.53 147.58 222.88 155.83C213.41 163.92 199.41 168.02 181.28 168.02L181.32 168.03ZM158.7 160.03H181.32C197.49 160.03 209.74 156.57 217.72 149.76C225.7 142.95 229.47 133.53 229.47 120.76C229.47 107.99 225.62 98.46 217.69 91.57C209.76 84.68 197.48 81.11 181.32 81.11H158.66L158.7 160.03Z" fill="url(#paint2_linear_46_157)"/>
<defs>
<linearGradient id="paint0_linear_46_157" x1="1.91" y1="176.2" x2="327.3" y2="176.2" gradientUnits="userSpaceOnUse">
<stop stop-color="#6760CF"/>
<stop offset="1" stop-color="#00CAA4"/>
</linearGradient>
<linearGradient id="paint1_linear_46_157" x1="7" y1="189.04" x2="267.84" y2="189.04" gradientUnits="userSpaceOnUse">
<stop stop-color="#6760CF"/>
<stop offset="1" stop-color="#00CAA4"/>
</linearGradient>
<linearGradient id="paint2_linear_46_157" x1="66.72" y1="159.36" x2="322.2" y2="159.36" gradientUnits="userSpaceOnUse">
<stop stop-color="#6760CF"/>
<stop offset="1" stop-color="#00CAA4"/>
</linearGradient>
</defs>
</svg>
