<svg width="500" height="500" viewBox="0 0 500 500" fill="none" xmlns="http://www.w3.org/2000/svg">
<circle cx="250" cy="250" r="243.5" stroke="white" stroke-width="13"/>
<path d="M314.636 108.51L314.638 108.511C335.588 117.94 352.018 131.555 363.619 149.414L357.33 153.5L363.619 149.414C375.251 167.32 380.94 188.207 380.94 211.78C380.94 235.363 375.251 256.195 363.602 273.962C351.997 291.662 335.572 305.193 314.642 314.627L314.637 314.63C293.681 324.055 269.273 328.64 241.61 328.64H217.4V363.73C217.4 375.002 212.923 385.812 204.952 393.782C196.982 401.753 186.172 406.23 174.9 406.23H126H118.5V398.73V137C118.5 125.728 122.978 114.918 130.948 106.948L314.636 108.51ZM314.636 108.51C293.676 99.0851 269.28 94.5 241.65 94.5H161C149.728 94.5 138.918 98.9777 130.948 106.948L314.636 108.51ZM236.517 247.53H217.4V175.64H236.56H236.563C252.835 175.634 263.762 179.252 270.635 185.236L270.639 185.24C277.458 191.168 281.216 199.656 281.21 211.786C281.204 223.358 277.788 231.52 271.616 237.26L270.647 238.089C263.779 243.959 252.83 247.523 236.52 247.53C236.519 247.53 236.518 247.53 236.517 247.53Z" fill="url(#paint0_linear_4_79)" stroke="white" stroke-width="15"/>
<path d="M210 176C210 168.82 215.82 163 223 163H239C266.614 163 289 185.386 289 213V367H210V176Z" fill="white"/>
<defs>
<linearGradient id="paint0_linear_4_79" x1="125.961" y1="250.36" x2="373.401" y2="250.36" gradientUnits="userSpaceOnUse">
<stop stop-color="#6760CF"/>
<stop offset="1" stop-color="#00CAA4"/>
</linearGradient>
</defs>
</svg>
