<svg width="46" height="46" viewBox="0 0 46 46" fill="none" xmlns="http://www.w3.org/2000/svg">
<path d="M42.8713 12.2236C41.4019 12.8767 39.8205 13.3173 38.1612 13.5145C39.8554 12.5002 41.1544 10.8937 41.767 8.97719C40.1824 9.91759 38.4281 10.6 36.5595 10.9683C35.0641 9.37477 32.9326 8.37839 30.5739 8.37839C26.0455 8.37839 22.374 12.0499 22.374 16.5791C22.374 17.2209 22.4462 17.8465 22.5866 18.4477C15.7709 18.1053 9.72773 14.8411 5.68296 9.87945C4.97705 11.09 4.57298 12.4986 4.57298 14.0029C4.57298 16.8477 6.0205 19.3581 8.22098 20.8283C6.87732 20.7853 5.61237 20.4161 4.50645 19.8019C4.50564 19.836 4.50564 19.8709 4.50564 19.9058C4.50564 23.8783 7.33251 27.192 11.0844 27.9466C10.3963 28.1332 9.67174 28.2339 8.92364 28.2339C8.39462 28.2339 7.88101 28.1827 7.38038 28.0862C8.42464 31.3439 11.4527 33.7156 15.0407 33.7813C12.2341 35.981 8.69889 37.2922 4.85616 37.2922C4.19488 37.2922 3.54171 37.2532 2.8999 37.177C6.53005 39.5048 10.8401 40.8615 15.4707 40.8615C30.5552 40.8615 38.803 28.3661 38.803 17.5292C38.803 17.1738 38.7957 16.8193 38.7803 16.4671C40.382 15.3133 41.7727 13.8682 42.8713 12.2236Z" fill="url(#paint0_linear_2_4)"/>
<defs>
<linearGradient id="paint0_linear_2_4" x1="22.8856" y1="8.37839" x2="22.8856" y2="40.8615" gradientUnits="userSpaceOnUse">
<stop stop-color="#6562CE"/>
<stop offset="1" stop-color="#6167CC"/>
</linearGradient>
</defs>
</svg>
