<svg width="36" height="29" viewBox="0 0 36 29" fill="none" xmlns="http://www.w3.org/2000/svg">
<path d="M36 3.4362C34.6726 4.01771 33.2537 4.41042 31.7584 4.59167C33.2842 3.68542 34.459 2.25052 35.0083 0.54375C33.5817 1.38203 32.0025 1.99375 30.3166 2.31849C28.9663 0.891146 27.0439 0 24.9231 0C20.8417 0 17.5385 3.2776 17.5385 7.31797C17.5385 7.89193 17.5995 8.45078 17.7292 8.98698C11.588 8.6849 6.14113 5.76979 2.50223 1.33672C1.86904 2.41667 1.50286 3.67786 1.50286 5.01458C1.50286 7.55208 2.80737 9.79505 4.79085 11.1091C3.57788 11.0789 2.43357 10.7466 1.44183 10.1953C1.44183 10.2255 1.44183 10.2557 1.44183 10.2859C1.44183 13.8354 3.98983 16.7883 7.36936 17.4604C6.75143 17.6266 6.09536 17.7172 5.42403 17.7172C4.95105 17.7172 4.4857 17.6719 4.0356 17.5812C4.97394 20.4888 7.70502 22.6034 10.9396 22.6638C8.41449 24.6273 5.22568 25.7979 1.76224 25.7979C1.1672 25.7979 0.579784 25.7602 0 25.6922C3.2651 27.7917 7.14812 29 11.3134 29C24.9078 29 32.3382 17.8456 32.3382 8.17135C32.3382 7.85417 32.3306 7.53698 32.3153 7.22734C33.7572 6.19271 35.0083 4.9013 36 3.4362Z" fill="white"/>
</svg>
